<?xml version="1.0" encoding="UTF-8"?>
<svg width="114px" height="79px" viewBox="0 0 114 79" version="1.1" xmlns="http://www.w3.org/2000/svg" xmlns:xlink="http://www.w3.org/1999/xlink">
    <!-- Generator: Sketch 49 (51002) - http://www.bohemiancoding.com/sketch -->
    <title>Group</title>
    <desc>Created with Sketch.</desc>
    <defs></defs>
    <g id="Page-1" stroke="none" stroke-width="1" fill="none" fill-rule="evenodd">
        <g id="Artboard" transform="translate(-425.000000, -542.000000)" fill="#EE6E73">
            <g id="Group" transform="translate(425.000000, 542.000000)">
                <path d="M86.5695519,13.3948463 C90.3334749,9.147152 94.3704697,4.68220322 98.6805362,0 C96.0964064,5.83930266 93.6028385,11.338993 91.1998325,16.499071 C105.044623,26.7937357 114,43.1841385 114,61.6451661 C114,67.7002051 113.036601,73.5324911 111.25327,79 L104.008383,76.1742797 C105.414621,71.6581993 106.171674,66.8602926 106.171674,61.8873434 C106.171674,46.5241077 98.9462481,32.8315048 87.6759047,23.9580867 C69.338751,62.187642 56.6946162,79.0680434 49.7435002,74.599291 C42.7857247,70.1262572 53.247089,51.7946472 81.127593,19.6044608 C74.0637972,15.6859415 65.917759,13.4518943 57.2446352,13.4518943 C30.2229779,13.4518943 8.31759657,35.1371835 8.31759657,61.8873434 C8.31759657,66.1893378 8.88414591,70.360337 9.94741203,74.3312102 L2.14596659,77.0356794 C0.748041627,72.1432487 0,66.980687 0,61.6451661 C0,30.4812299 25.5197693,5.21786795 57,5.21786795 C67.8267618,5.21786795 77.948504,8.20608747 86.5695519,13.3948463 Z" id="Combined-Shape"></path>
            </g>
        </g>
    </g>
</svg>