<?xml version="1.0" encoding="UTF-8"?>
<svg width="757px" height="124px" viewBox="0 0 757 124" version="1.1" xmlns="http://www.w3.org/2000/svg" xmlns:xlink="http://www.w3.org/1999/xlink">
    <!-- Generator: Sketch 49 (51002) - http://www.bohemiancoding.com/sketch -->
    <title>logo</title>
    <desc>Created with Sketch.</desc>
    <defs>
        <path d="M5.40000021,26.2048358 L34.2052317,26.2048358 C37.1875694,26.2048358 39.6052319,28.6224982 39.6052319,31.604836 L39.6052319,117.6 C39.6052319,120.582338 37.1875694,123 34.2052317,123 L5.40000021,123 C2.41766245,123 3.6523104e-16,120.582338 0,117.6 L0,31.604836 C-3.6523104e-16,28.6224982 2.41766245,26.2048358 5.40000021,26.2048358 Z M19.8026159,40.4133002 C22.2882257,40.4133002 24.3032105,38.4253795 24.3032105,35.9731551 C24.3032105,33.5209306 22.2882257,31.5330099 19.8026159,31.5330099 C17.3170062,31.5330099 15.3020214,33.5209306 15.3020214,35.9731551 C15.3020214,38.4253795 17.3170062,40.4133002 19.8026159,40.4133002 Z" id="path-1"></path>
    </defs>
    <g id="Page-1" stroke="none" stroke-width="1" fill="none" fill-rule="evenodd">
        <g id="Desktop" transform="translate(-134.000000, -41.000000)">
            <g id="logo" transform="translate(134.000000, 42.000000)">
                <path d="M48.9268633,62.5163212 C48.2355685,59.0687127 47.371463,55.9228171 46.3345208,53.0785401 C45.2975786,50.2342632 44.023023,47.777879 42.5108157,45.7093139 C40.9986084,43.6407488 39.2703974,42.0462538 37.3261308,40.925781 C35.3818642,39.8053083 33.1999978,39.2450803 30.7804661,39.2450803 C25.768579,39.2450803 21.8801042,40.2578001 19.1149251,42.2832701 C16.349746,44.3087401 14.9671772,46.9590493 14.9671772,50.2342774 C14.9671772,52.5614131 15.4424352,54.4575693 16.3929655,55.9228029 C17.3434958,57.3880365 18.7260646,58.7024175 20.5407134,59.8659854 C22.3553622,61.0295533 24.5804339,62.1069148 27.2159952,63.0981022 C29.8515566,64.0892896 32.8111179,65.2312928 36.0947681,66.524146 C39.8104776,67.9893796 43.2236943,69.4545912 46.3345208,70.9198248 C49.4453473,72.3850584 52.1024717,74.1519313 54.3059738,76.2204964 C56.5094759,78.2890614 58.2160843,80.7885401 59.4258502,83.7190073 C60.635616,86.6494745 61.2404899,90.355598 61.2404899,94.8374891 C61.2404899,99.1469996 60.5276028,102.982407 59.1018074,106.343825 C57.6760119,109.705243 55.645364,112.571025 53.0098026,114.941255 C50.3742413,117.311486 47.2202562,119.121454 43.5477527,120.371212 C39.8752492,121.62097 35.8355559,122.245839 31.4285517,122.245839 C28.2313134,122.245839 25.1421362,121.857989 22.1609275,121.082277 C19.1797187,120.306565 16.5657996,118.927543 14.3190916,116.945168 C12.5908546,118.151831 10.7978357,119.229192 8.93998098,120.177285 C7.08212626,121.125377 5.15949151,121.901077 3.17201902,122.504409 C2.13507686,119.487751 1.40058718,116.449592 0.968527943,113.389839 C0.536468708,110.330087 0.320442331,107.162644 0.320442331,103.887416 C0.320442331,101.646471 0.385250244,99.4486531 0.514868014,97.2938978 C0.644485785,95.1391425 0.8821148,92.9413251 1.22776219,90.7003796 L9.65287515,90.7003796 C9.65287515,93.5446566 10.02012,96.4319853 10.7546207,99.3624526 C11.4891214,102.29292 12.6772665,104.986323 14.3190916,107.442745 C15.9609167,109.899166 18.0995778,111.903058 20.7351391,113.454482 C23.3707005,115.005906 26.5462882,115.781606 30.2619976,115.781606 C33.6320597,115.781606 36.4620052,115.415303 38.7519191,114.682686 C41.0418331,113.950069 42.8996599,112.93735 44.3254554,111.644496 C45.7512509,110.351643 46.7881775,108.864884 47.4362663,107.184175 C48.0843552,105.503466 48.4083948,103.715046 48.4083948,101.818861 C48.4083948,98.8022039 47.6306998,96.281178 46.0752866,94.255708 C44.5198733,92.230238 41.9707621,90.6141958 38.4278763,89.4075328 C33.1567537,87.5975384 28.3177628,85.8091183 23.9107586,84.042219 C19.5037544,82.2753196 15.6800875,80.1636911 12.4396433,77.7072701 C9.19919902,75.250849 6.6716904,72.341973 4.85704162,68.9805547 C3.04239283,65.6191365 2.13508205,61.4820684 2.13508205,56.5692263 C2.13508205,52.8630472 2.84796909,49.5232265 4.27376457,46.5496642 C5.69956004,43.5761019 7.6221948,41.055076 10.0417265,38.9865109 C12.4612582,36.9179459 15.2912038,35.3449981 18.531648,34.2676204 C21.7720923,33.1902428 25.2069117,32.651562 28.8362093,32.651562 C32.0334476,32.651562 35.1010222,33.2333372 38.039025,34.3969051 C40.9770278,35.560473 43.4397285,37.5212709 45.427201,40.2793577 C46.3777313,38.5555534 47.7603001,37.1334363 49.5749489,36.0129635 C51.3895977,34.8924907 53.2042192,34.073696 55.018868,33.5565547 C56.3150457,37.7798751 57.1143433,42.4987185 57.4167848,47.7132263 C57.7192262,52.9277341 57.8704447,57.8620497 57.8704447,62.5163212 L48.9268633,62.5163212 Z M73.5541165,120.306569 L73.5541165,114.876613 C81.2447709,114.876613 85.0900404,112.075473 85.0900404,106.473109 L85.0900404,47.0021606 C85.0900404,42.5202696 81.0719498,40.2793577 73.035648,40.2793577 L73.035648,34.5908321 L102.329118,34.5908321 C105.612768,34.5908321 108.356303,34.5261904 110.559805,34.3969051 C112.763307,34.2676198 115.290816,34.2029781 118.142407,34.2029781 C129.54877,34.2029781 137.887389,36.2930594 143.158511,40.4732847 C148.429634,44.65351 151.065156,51.0530372 151.065156,59.6720584 C151.065156,62.9472864 150.481885,66.0500875 149.315325,68.9805547 C148.148765,71.911022 146.22613,74.4535951 143.547363,76.6083504 C140.868595,78.7631057 137.412173,80.4653368 133.177993,81.7150949 C128.943812,82.964853 123.759179,83.5897226 117.623938,83.5897226 C115.031583,83.5897226 112.892922,83.5035337 111.207891,83.3311533 C109.52286,83.1587729 107.902662,82.9002061 106.347249,82.5554453 L106.347249,105.955971 C106.347249,108.800248 107.42738,110.998065 109.587677,112.549489 C111.747973,114.100913 114.901958,114.876613 119.049727,114.876613 L119.049727,120.306569 L73.5541165,120.306569 Z M106.347249,75.961927 C108.075485,76.3928781 109.803696,76.6945393 111.531933,76.8669197 C113.26017,77.0393001 115.290818,77.1254891 117.623938,77.1254891 C120.302705,77.1254891 122.398161,76.6299028 123.910369,75.6387153 C125.422576,74.6475279 126.545913,73.3331469 127.280414,71.6955328 C128.014914,70.0579188 128.46857,68.1402154 128.641394,65.942365 C128.814217,63.7445146 128.900628,61.4820554 128.900628,59.1549197 C128.900628,55.9658819 128.641396,53.1862892 128.122925,50.8160584 C127.604454,48.4458276 126.675541,46.4850297 125.336157,44.9336058 C123.996773,43.382182 122.160549,42.2186316 119.827429,41.4429197 C117.494309,40.6672078 114.556351,40.2793577 111.013465,40.2793577 C107.902638,40.2793577 106.347249,42.2186083 106.347249,46.0971679 L106.347249,75.961927 Z M205.763581,120.306569 L205.763581,115.005898 C206.973347,114.833517 208.247903,114.66114 209.587287,114.488759 C210.92667,114.316379 212.136418,114.122454 213.216566,113.906978 C214.296714,113.691503 215.182422,113.432936 215.873717,113.13127 C216.565012,112.829604 216.910654,112.506396 216.910654,112.161635 C216.910654,111.730684 216.802641,111.235098 216.586611,110.674861 C216.370582,110.114625 216.132953,109.489755 215.873717,108.800234 L210.170564,93.0275036 C209.824916,92.0794113 208.960811,91.4114472 207.578221,91.0235912 C206.195632,90.6357353 204.769858,90.4418102 203.300856,90.4418102 L184.376756,90.4418102 C181.611577,90.4418102 179.926571,91.3036994 179.321688,93.0275036 L175.173941,106.21454 C175.001117,106.645491 174.871501,107.11953 174.785089,107.636672 C174.698677,108.153813 174.655472,108.714041 174.655472,109.317372 C174.655472,112.678791 178.32792,114.359474 185.672927,114.359474 L185.672927,120.306569 L155.472138,120.306569 L155.472138,114.359474 C160.311201,114.014714 163.897239,111.08429 166.230359,105.568117 L196.949617,32.5222774 L209.00401,34.2029781 L239.204799,109.963796 C239.550446,110.911888 240.112115,111.687588 240.889822,112.29092 C241.667528,112.894251 242.553236,113.36829 243.546973,113.713051 C244.540709,114.057812 245.556033,114.337926 246.592975,114.553401 C247.629917,114.768877 248.623639,114.919708 249.574169,115.005898 L249.574169,120.306569 L205.763581,120.306569 Z M195.394212,53.7249635 L185.154459,78.4183358 C184.203929,80.4869009 183.728671,81.7797346 183.728671,82.2968759 C183.728671,82.9863976 185.068034,83.3311533 187.746801,83.3311533 L203.689707,83.3311533 C205.763592,83.3311533 206.800518,83.1587754 206.800518,82.8140146 C206.800518,82.3830635 205.979618,80.0559627 204.337793,75.8326423 L195.394212,53.7249635 Z M327.474059,121.857985 L272.386782,64.0677372 L272.386782,100.655299 C272.386782,110.136223 276.79372,114.876613 285.607729,114.876613 L285.607729,120.306569 L253.333065,120.306569 L253.333065,114.876613 C260.591661,114.876613 264.220904,110.136223 264.220904,100.655299 L264.220904,44.5457518 C264.220904,41.7014748 259.986787,40.2793577 251.518426,40.2793577 L251.518426,34.5908321 L276.016062,34.5908321 L324.622483,86.5632701 L324.622483,53.3371095 C324.622483,44.6318981 320.25875,40.2793577 311.531153,40.2793577 L311.531153,34.5908321 L343.6762,34.5908321 L343.6762,40.2793577 C335.812722,40.2793577 331.881042,44.6318981 331.881042,53.3371095 L331.881042,120.694423 L327.474059,121.857985 Z" id="SPANGL-SH" fill="#4CB6AC"></path>
                <path d="M422.497812,121.728701 L413.165379,114.876613 C410.227377,117.117559 406.706147,118.905979 402.601584,120.241927 C398.497021,121.577875 394.284507,122.245839 389.963914,122.245839 C384.001497,122.245839 378.557632,121.125383 373.632157,118.884438 C368.706682,116.643492 364.450962,113.562239 360.86487,109.640584 C357.278779,105.718929 354.492038,101.129369 352.504566,95.8717664 C350.517094,90.6141635 349.523372,84.9687893 349.523372,78.9354745 C349.523372,72.9883498 350.538696,67.2352395 352.569375,61.6759708 C354.600053,56.1167021 357.473204,51.1823865 361.188913,46.8728759 C364.904623,42.5633653 369.333163,39.1158085 374.474668,36.5301022 C379.616173,33.9443958 385.254462,32.651562 391.389703,32.651562 C395.105412,32.651562 398.669847,33.2979789 402.083115,34.5908321 C405.496383,35.8836853 408.844792,37.3919914 412.128442,39.1157956 C415.239269,36.012948 418.350049,34.2029807 421.460875,33.6858394 C424.398878,40.839627 425.867857,50.6651638 425.867857,63.1627445 L421.460875,63.1627445 C419.559815,55.5780059 416.189803,49.4370454 411.35074,44.7396788 C406.511676,40.0423123 400.376527,37.6936642 392.945108,37.6936642 C387.673986,37.6936642 383.223842,38.792573 379.594545,40.9904234 C375.965247,43.1882738 373.005686,46.118697 370.715772,49.781781 C368.425858,53.444865 366.784057,57.6465748 365.790321,62.3870365 C364.796585,67.1274982 364.299724,71.9971721 364.299724,76.9962044 C364.299724,82.4261877 364.882995,87.5544284 366.049555,92.3810803 C367.216115,97.2077322 369.009134,101.430989 371.428666,105.050978 C373.848198,108.670967 376.829362,111.558296 380.372247,113.713051 C383.915133,115.867806 388.106045,116.945168 392.945108,116.945168 C395.796699,116.945168 398.453824,116.600412 400.916561,115.910891 C403.379299,115.221369 405.561165,114.144007 407.462226,112.678774 C409.363287,111.21354 410.853869,109.338931 411.934017,107.054891 C413.014165,104.77085 413.554231,101.991257 413.554231,98.7160292 C413.554231,89.7522472 409.147293,85.2704234 400.333284,85.2704234 L400.333284,81.3918832 L437.403781,81.3918832 L437.403781,85.2704234 C429.713127,85.2704234 425.867857,88.5456023 425.867857,95.0960584 L425.867857,121.728701 L422.497812,121.728701 Z" id="Path" fill="#EE6C72"></path>
                <path d="M444.151073,120.306569 L444.151073,116.428029 C451.755315,116.428029 455.557379,114.100928 455.557379,109.446657 L455.557379,48.424292 C455.557379,41.8738359 451.280057,38.5986569 442.725284,38.5986569 L442.725284,34.5908321 L480.184633,34.5908321 L480.184633,38.5986569 C472.234743,38.5986569 468.259857,41.8738359 468.259857,48.424292 L468.259857,109.446657 C468.259857,113.066646 471.0682,114.876613 476.68497,114.876613 L482.647358,114.876613 C486.622303,114.876613 490.078725,114.596499 493.016728,114.036263 C495.954731,113.476026 498.460636,112.678779 500.534521,111.644496 C504.336642,109.575931 507.749859,103.413424 510.774273,93.1567883 L514.273936,93.673927 L510.385422,120.306569 L444.151073,120.306569 Z" id="Path" fill="#EE6C72"></path>
                <path d="M643.019743,60.7063358 C641.291506,53.7249286 638.396753,48.1441961 634.335396,43.9639708 C630.274039,39.7837455 625.262227,37.6936642 619.29981,37.6936642 C614.374334,37.6936642 610.442654,38.986498 607.504652,41.5722044 C604.566649,44.1579107 603.097669,47.4330897 603.097669,51.3978394 C603.097669,54.500687 604.156199,57.1940908 606.273289,59.4781314 C608.390379,61.762172 611.565967,63.8091588 615.800147,65.6191533 C621.07127,67.8600988 625.867056,69.7347078 630.187648,71.2430365 C634.50824,72.7513652 638.202291,74.4966908 641.269912,76.4790657 C644.337533,78.4614406 646.713823,80.9609192 648.398854,83.9775766 C650.083885,86.9942341 650.926388,91.0882077 650.926388,96.2596204 C650.926388,99.4486583 650.429527,102.594554 649.435791,105.697401 C648.442054,108.800249 646.908267,111.579842 644.834383,114.036263 C642.760499,116.492684 640.060169,118.475029 636.733313,119.983358 C633.406457,121.491686 629.409969,122.245839 624.743729,122.245839 C621.719314,122.245839 619.105395,122.030367 616.901893,121.599416 C614.698391,121.168465 612.840564,120.651331 611.328357,120.048 C609.816149,119.444669 608.628004,118.841346 607.763886,118.238015 C606.899767,117.634683 606.294894,117.203739 605.949246,116.945168 C604.307421,118.151831 602.665621,119.229192 601.023795,120.177285 C599.38197,121.125377 597.74017,121.814888 596.098345,122.245839 C595.147815,115.781574 594.434927,110.028463 593.959662,104.986336 C593.484397,99.9442084 593.246768,95.5270263 593.246768,91.7346569 L597.524133,91.7346569 C597.524133,95.5270263 598.301828,98.9961303 599.857241,102.142073 C601.412655,105.288016 603.400097,107.981419 605.819629,110.222365 C608.239161,112.46331 610.961093,114.208636 613.985508,115.458394 C617.009922,116.708152 619.947881,117.333022 622.799472,117.333022 C624.614121,117.333022 626.623166,117.031361 628.826668,116.428029 C631.03017,115.824698 633.104024,114.87662 635.04829,113.583766 C636.992557,112.290913 638.634357,110.653324 639.973741,108.670949 C641.313124,106.688574 641.982806,104.318379 641.982806,101.560292 C641.982806,98.1126835 641.053893,95.0960713 639.196038,92.510365 C637.338183,89.9246586 634.378622,87.899219 630.317265,86.4339854 C625.564614,84.7101812 621.006457,83.1156862 616.642659,81.6504526 C612.27886,80.185219 608.433591,78.4398933 605.106735,76.4144234 C601.779879,74.3889534 599.122754,71.8463803 597.135282,68.7866277 C595.147809,65.7268752 594.154088,61.6975432 594.154088,56.6985109 C594.154088,53.078522 594.802167,49.8033431 596.098345,46.8728759 C597.394523,43.9424087 599.144336,41.4213828 601.347838,39.3097226 C603.55134,37.1980624 606.122054,35.560473 609.060057,34.3969051 C611.99806,33.2333372 615.065634,32.651562 618.262873,32.651562 C621.978582,32.651562 625.15417,33.3195262 627.789731,34.6554745 C630.425293,35.9914227 632.866391,37.1765204 635.113099,38.2108029 C637.791866,36.0560476 640.600209,34.5477415 643.538212,33.6858394 C644.747978,37.6505892 645.612083,41.852299 646.130554,46.2910949 C646.649025,50.7298908 646.908257,55.534923 646.908257,60.7063358 L643.019743,60.7063358 Z" id="Path" fill="#EE6C72"></path>
                <path d="M719.22741,120.306569 L719.22741,116.428029 C727.782183,116.428029 732.059505,113.454511 732.059505,107.507387 L732.059505,80.4868905 C730.504092,79.1940373 727.220491,78.5476204 722.208604,78.5476204 L698.877522,78.5476204 C697.149285,78.5476204 695.507485,78.698451 693.952071,79.0001168 C692.396658,79.3017825 690.927679,79.7973688 689.545089,80.4868905 L689.545089,107.507387 C689.545089,113.454511 693.519975,116.428029 701.469864,116.428029 L701.469864,120.306569 L663.492048,120.306569 L663.492048,116.428029 C672.306056,116.428029 676.712994,113.454511 676.712994,107.507387 L676.712994,49.975708 C676.712994,42.3909694 672.306056,38.5986569 663.492048,38.5986569 L663.492048,34.5908321 L701.469864,34.5908321 L701.469864,38.5986569 C693.519975,38.5986569 689.545089,42.3909694 689.545089,49.975708 L689.545089,72.0833869 C692.39668,73.0314792 695.50746,73.5055182 698.877522,73.5055182 L722.208604,73.5055182 C727.047667,73.5055182 730.331268,73.0314792 732.059505,72.0833869 L732.059505,49.975708 C732.059505,42.3909694 727.782183,38.5986569 719.22741,38.5986569 L719.22741,34.5908321 L756.686759,34.5908321 L756.686759,38.5986569 C748.823281,38.5986569 744.8916,42.3909694 744.8916,49.975708 L744.8916,107.507387 C744.8916,113.454511 748.823281,116.428029 756.686759,116.428029 L756.686759,120.306569 L719.22741,120.306569 Z" id="Path" fill="#EE6C72"></path>
                <g id="Group" transform="translate(533.770511, 0.000000)">
                    <g id="Combined-Shape">
                        <use fill="#4CB6AC" fill-rule="evenodd" xlink:href="#path-1"></use>
                        <path stroke="#000000" stroke-width="1.80000007" d="M5.40000021,27.1048358 C2.91471874,27.1048358 0.900000036,29.1195545 0.900000036,31.604836 L0.900000036,117.6 C0.900000036,120.085281 2.91471874,122.1 5.40000021,122.1 L34.2052317,122.1 C36.6905131,122.1 38.7052318,120.085281 38.7052318,117.6 L38.7052318,31.604836 C38.7052318,29.1195545 36.6905131,27.1048358 34.2052317,27.1048358 L5.40000021,27.1048358 Z M19.8026159,41.3133003 C16.8226538,41.3133003 14.4020214,38.9251804 14.4020214,35.9731551 C14.4020214,33.0211298 16.8226538,30.6330099 19.8026159,30.6330099 C22.7825781,30.6330099 25.2032105,33.0211298 25.2032105,35.9731551 C25.2032105,38.9251804 22.7825781,41.3133003 19.8026159,41.3133003 Z"></path>
                    </g>
                    <path d="M19.5862032,0 C20.0115212,20.0694549 20.0115212,29.88455 19.5862032,29.4452853 C18.9482261,28.7863881 15.8020751,27.1035287 31.5041617,2.06350755" id="Path-6" stroke="#EE6C72" stroke-width="2.70000011"></path>
                </g>
            </g>
        </g>
    </g>
</svg>